<svg xmlns="http://www.w3.org/2000/svg" viewBox="0 0 490 213" role="img" aria-label="Gimnastički klub Kraguj"><title>Gimnastički klub Kraguj</title><path id="wordmark" fill="currentColor" fill-rule="evenodd" d="M274.7 194.6C273.8 194.3 273.1 193.9 272.9 193.5C272.5 192.9 273.4 190.5 274.7 188.4C274.9 188.1 275.3 187.4 275.4 187C275.6 186.6 276 185.9 276.3 185.4C277 184.3 277.7 183.1 279.7 178.9C280.6 177.2 281.3 175.9 281.4 175.8C281.4 175.8 281.6 175.5 281.7 175.2C282 174.3 282.7 173.3 283.2 173C283.4 172.9 284 172.5 284.6 172C285.2 171.6 285.7 171.2 285.7 171.2C285.9 171.1 287.8 170.8 288.3 170.8C289 170.7 292.9 172.1 295.9 173.4C296.3 173.6 296.8 173.8 297 173.9C297.7 174.2 298 174.7 297.8 175.1C297.6 175.4 295.7 177.6 294.4 179C294 179.3 293.5 179.9 293.3 180.2C293 180.6 292.5 181.2 292 181.6C291.6 182.1 290.5 183.2 289.6 184.1C288.1 185.7 285.8 188.1 282.4 191.5C280.4 193.6 280.1 193.8 278.1 194.3C276.4 194.8 275.8 194.8 274.7 194.6ZM193.7 191.8C192.3 191.5 191.6 191.1 190.8 190.4C190.4 190 189.9 189.6 189.7 189.4C189.2 189.1 188.3 187.4 188.1 186.3C188 185.9 187.7 185.2 187.6 184.9C187.2 184.3 187.2 184.2 187.2 181.8C187.2 179.5 187.2 179.3 187.5 178.6C187.6 178.2 187.8 177.5 187.9 177C188 176.2 189.2 173.8 190.2 172.4C191.1 170.9 193.3 168.5 194.2 167.9C194.5 167.7 194.9 167.4 195 167.2C195.2 167 195.9 166.4 196.5 166C197.1 165.5 197.9 165 198.2 164.7C198.7 164.3 200.3 163.1 202.3 161.7C202.8 161.4 203.4 160.9 203.5 160.8C203.7 160.6 204.1 160.4 204.4 160.2C205.4 159.7 206.7 158.5 206.9 157.9C207.3 156.8 208.1 154.2 208.6 152.8C209.1 151 209.4 150 210 148.3C210.5 146.8 210.5 146 210 145.9C209.7 145.9 209.5 146 208.8 146.7C208.3 147.1 207.7 147.6 207.3 147.8C207 147.9 206.5 148.2 206.2 148.4C205.9 148.6 205.3 148.8 204.9 148.9C204.4 149 203.5 149.3 202.9 149.5C200.9 150.1 196.4 150.3 194.4 149.8C194.1 149.7 193.6 149.6 193.2 149.6C192.9 149.5 192.4 149.4 192.2 149.3C191.4 148.9 189.5 147.5 189.1 147C188.5 146.3 187.2 144.1 187 143.7C187 143.5 186.8 143 186.6 142.6C186.4 142.2 186.2 141.7 186.2 141.6C186.2 141.1 186 140.4 185.7 140.1C185.3 139.7 184.9 139.9 183.9 140.9C183.1 141.7 181.5 143.2 180.2 144.2C179.9 144.5 179.2 145.1 178.6 145.5C178 146 177.3 146.5 177.1 146.6C176.8 146.8 176.4 147.1 176.1 147.4C175.8 147.6 175.5 147.9 175.3 147.9C175.1 148 174.6 148.2 174.2 148.4C173.9 148.7 173.3 148.9 173.1 149C172.8 149.1 172.1 149.3 171.6 149.4C168.2 150.6 164 149.8 161.2 147.5C160.3 146.7 159.2 145 158.9 143.9C158.7 143.2 158.3 142.9 157.8 142.9C157.4 142.9 157.2 143 156 144.2C155.3 144.9 154.2 145.8 153.6 146.3C153 146.7 152.4 147.2 152.2 147.3C152.1 147.5 151.7 147.7 151.4 147.8C151.2 147.9 150.7 148.2 150.4 148.4C149.7 148.8 147.1 149.7 145.9 149.9C144.5 150.1 140 150 139.2 149.7C136.4 148.8 134.3 147.2 133.2 144.9C133 144.5 132.7 144 132.6 143.8C132.4 143.5 132.2 142.9 132 142.2C131.4 139.8 131 139.7 129.2 141.5C127.3 143.5 125.3 145 122.6 146.6C121.8 147.1 120.9 147.6 120.5 147.9C119.5 148.5 119.3 148.6 118.4 148.8C117.9 148.9 117.1 149.1 116.5 149.3C114.1 150.1 110.3 150.1 107.2 149.3C106.5 149.1 105.5 149 105.1 148.9C104.3 148.8 102.3 147.7 100.6 146.6C99.6 145.8 98.1 144.2 97.9 143.4C97.8 143.1 97.6 142.6 97.4 142.2C97.1 141.8 96.8 140.9 96.6 139.8C96.2 138.1 96.2 138 96.3 135.3C96.3 132.9 96.4 132.4 96.7 131.2C96.8 130.4 97 129.5 97.1 129.1C97.1 128.7 97.3 128.1 97.4 127.9C97.5 127.6 97.7 126.9 97.9 126.3C98 125.7 98.3 124.8 98.5 124.4C98.7 123.9 98.9 123.3 99.1 122.9C99.2 122.5 99.4 122 99.5 121.8C99.6 121.6 99.9 121.1 100 120.7C100.1 120.3 100.4 119.8 100.5 119.6C100.6 119.3 100.9 118.8 101 118.4C101.2 117.7 102 116.2 103.3 114C104.1 112.5 104.2 111.9 103.7 111.4C103.4 111.2 103.1 111 102.8 110.9C102.5 110.9 101.8 110.6 101.2 110.4C99.6 109.8 99.2 109.9 98.7 111.1C97.9 112.6 96.6 115 96.3 115.2C96.2 115.4 95.9 116 95.5 116.7C94.8 118.1 94.4 118.8 93 120.9C92.5 121.7 91.8 122.7 91.6 123.1C89.9 125.8 89.5 126.3 88.9 126.8C88.1 127.6 87.8 127.7 86.3 128.2C85 128.7 84.8 128.7 83.5 128.3C82.3 127.9 82 127.7 81.6 126.7C81.1 125.6 81.1 124.9 81.6 123.8C82.6 121.5 83.1 120.7 83.6 120.1C83.8 119.8 84 119.5 84.1 119.4C84.1 119.2 84.3 118.8 84.5 118.6C84.7 118.3 85.1 117.5 85.5 116.8C85.9 116.1 86.3 115.3 86.6 114.9C87.9 112.8 89.5 109.3 90.9 105.7C91.4 104.2 91.4 103.2 90.6 101.5C90 100.3 89.8 99.7 89.6 97.8C89.5 96.8 89.5 96.6 89.8 95.6C90.2 94 90.5 93.5 91.4 92.6C92.2 91.7 94.2 90.4 94.9 90.2C96.8 89.7 98.7 89.5 99.9 89.7C101.3 90 103.3 90.5 103.8 90.8C104.2 91 105.8 92.8 106.5 93.8C106.7 94.1 107.3 94.7 107.8 95.2C110.4 97.9 113.4 99.7 117.1 100.9C117.9 101.1 119.9 102.1 120.6 102.6C122.7 104.2 123.5 106.2 122.7 108.2C122.4 109.1 120.1 113.7 119.1 115.4C118.4 116.6 117 119.5 116.8 120C116.8 120.2 116.3 121.2 115.9 122.2C115.4 123.2 115 124.2 114.9 124.4C114.9 124.6 114.7 125.2 114.5 125.6C113.8 127.2 112.5 132.1 112.3 134.4C112.2 135.6 112.5 137.3 113 138.1C113.5 138.8 114 139 115.3 139.1C117.1 139.2 118.8 138.7 120.2 137.7C120.6 137.4 121.4 136.8 122 136.4C123.7 135.2 127.3 131.5 128.3 130C128.5 129.7 128.9 129.1 129.3 128.6C129.6 128.1 130.1 127.5 130.3 127.2C130.5 126.8 130.9 126.2 131.3 125.7C132.3 124.2 132.6 123.6 133 122.2C133.2 121.5 133.5 120.5 133.8 119.9C134 119.4 134.5 118.3 134.8 117.6C135.1 116.8 135.6 115.7 135.9 115.1C136.3 114.4 136.7 113.6 137 113.1C137.2 112.6 137.4 112.2 137.5 112.2C137.6 112.1 139.6 109.1 139.9 108.5C140 108.3 140.3 107.9 140.5 107.6C140.8 107.4 141.2 106.8 141.5 106.4C141.9 105.9 142.5 105.1 143 104.6C143.5 104.1 144.3 103.3 144.7 102.8C145.1 102.3 145.5 101.9 145.5 101.9C145.6 101.9 146 101.5 146.4 101.1C147.3 100.2 148.3 99.4 150.1 98C150.8 97.5 151.5 96.9 151.8 96.6C152.1 96.4 152.6 96 152.9 95.9C153.2 95.8 153.7 95.6 154 95.4C154.7 94.9 156.2 94.2 156.8 94C157.1 93.9 157.7 93.7 158.2 93.4C160 92.5 163.7 91.9 166.2 92.1C167.8 92.2 167.8 92.2 169.3 92.9C170.7 93.6 170.8 93.7 171.9 94.9C173 96.3 173.8 97.6 174.3 99.1C174.5 99.7 174.7 100.1 175.1 100.5C175.6 101 175.6 101 176.4 101C178.1 101 181.1 102 182 102.9C182.5 103.3 182.9 104 182.9 104.6C182.9 105.1 181.8 108.3 181.3 109.4C181.1 109.8 180.7 110.7 180.4 111.6C180.1 112.4 179.7 113.4 179.5 113.8C179.3 114.1 179.1 114.7 179 115.1C178.8 115.7 177.6 118.9 177.2 119.8C176.7 120.7 174.9 126.5 174.9 126.9C174.9 127.2 174.7 127.6 174.6 127.9C174.4 128.3 174.2 129 174.1 129.6C174 130.2 173.7 131.1 173.5 131.7C173.3 132.3 173 133.4 172.9 134.2C172.7 135 172.5 136 172.4 136.3C172.2 137.1 172.2 137.8 172.4 138.1C172.7 138.3 173.5 138.3 174 138C177.2 135.6 183.5 129.3 184.9 127.1C185 126.8 185.6 126 186 125.3C186.7 124.3 186.9 123.8 187.1 123.1C187.2 122.6 187.4 122 187.5 121.8C187.6 121.6 187.8 121.1 188 120.6C188.1 120.1 188.4 119.5 188.6 119.1C188.7 118.8 189 118.3 189.1 118C189.2 117.7 189.7 116.6 190.3 115.5C190.8 114.4 191.5 113.2 191.7 112.7C192.7 110.9 195.4 107 196.8 105.3C197.6 104.4 199.8 102 200.3 101.6C202.3 99.8 203.4 98.9 204.4 98.2C205 97.7 205.7 97.1 206 96.9C206.3 96.7 206.8 96.4 207.2 96.2C207.5 96 208 95.8 208.2 95.6C208.4 95.4 209.2 95 209.9 94.6C210.7 94.3 211.6 93.8 212 93.7C212.6 93.4 214.4 92.8 215.9 92.4C217 92.2 220.8 92 222.2 92.2C223.2 92.4 223.3 92.5 224.5 93.3C226 94.2 226.8 95.1 227.5 96.2C227.7 96.6 228.1 97.2 228.3 97.5C228.6 98 229.2 99.3 229.6 100.8C230 102 230.3 102.2 231.7 102.2C233.7 102.1 235.5 102.7 236.5 103.8C236.9 104.3 237 105.6 236.6 107.3C236.5 108 236.2 109.4 236 110.4C235.6 112.5 235 115.1 234.4 117.3C234.2 118.1 234 118.8 234 118.9C234 119.1 233.9 119.5 233.8 119.9C233.7 120.3 233.4 121.5 233.1 122.6C232.8 123.7 232.5 125 232.3 125.5C232.1 126 232 126.6 232 126.8C232 127.1 231.8 127.7 231.6 128.1C231.3 128.8 230.7 130.7 230.2 132.7C230.1 133.2 229.8 133.9 229.6 134.3C229.4 134.7 229.2 135.4 229.1 136C228.9 136.5 228.8 137.1 228.7 137.3C228.6 137.5 228.2 138.5 227.8 139.6C227.4 140.6 227 141.7 226.9 141.9C226.6 142.8 226.9 143.3 227.5 143C227.9 142.8 231.6 139 233.5 136.9C234.4 135.9 235.4 134.7 235.9 134.2C236.7 133.3 237 132.9 238.4 130.8C239 130 239.4 129.4 239.5 129.3C239.6 129.3 239.7 129 239.9 128.7C240 128.4 240.3 128 240.5 127.7C240.8 127.5 241.2 126.9 241.5 126.4C241.8 125.9 242.3 125.2 242.5 124.7C243.1 123.9 243.9 121.9 244.1 120.9C244.2 120.6 244.6 119.6 245 118.6C245.6 117.1 246.4 115 247 113.3C247.1 112.9 247.4 112.4 247.6 112.2C247.7 112 247.9 111.5 248 111.2C248.1 110.9 248.3 110.4 248.5 110C248.7 109.6 249.4 108.2 250.1 106.8C251.1 104.7 251.4 104.3 251.8 104C252.7 103.3 253.5 103 254.6 102.8C255.3 102.7 256.1 102.6 256.6 102.5C258.1 102.2 259.9 102.2 260.9 102.4C261.4 102.5 262.3 102.7 262.8 102.8C264.7 103.2 266.2 103.9 266.5 104.6C266.8 105.5 266.7 105.8 264.9 109.8C264.4 110.9 264 112 263.9 112.1C263.9 112.3 263.7 112.8 263.5 113.2C263.3 113.6 263 114.3 262.8 114.7C262.3 116 261.8 117.4 261.4 118.1C260.4 120.5 257.9 127.6 257.7 128.9C257.6 129.2 257.5 129.9 257.3 130.5C257.1 131 256.9 132.3 256.7 133.4C256.2 135.8 256.3 137 257 137.9C257.5 138.7 257.9 138.8 259 138.7C260 138.6 262 137.7 262.6 137.1C262.8 136.9 263.2 136.6 263.4 136.4C263.7 136.2 264.5 135.3 265.3 134.5C266 133.7 266.8 132.8 267.2 132.4C268.2 131.3 270.9 127.7 270.9 127.4C270.9 127.3 271.3 126.4 271.8 125.4C272.2 124.4 272.7 123.3 272.9 123C273 122.7 273.3 122 273.6 121.5C273.8 121.1 274 120.6 274 120.5C274 120.4 274.8 118.3 276 115.3C276.2 114.6 276.6 113.8 276.7 113.5C276.9 113.2 277 113 277 112.9C277 112.6 277.9 110.3 279.6 106.5C279.9 105.9 280.2 105.2 280.3 104.9C280.3 104.7 280.5 104.3 280.6 104.1C280.7 104 280.9 103.6 281 103.3C281.1 103 281.3 102.5 281.6 102.1C281.8 101.7 282 101.1 282.1 100.8C282.4 99.9 283.3 98.1 283.9 97.5C284.8 96.6 285.5 96.4 288.1 95.9C289.9 95.6 293.4 95.7 295.4 96.1C296 96.2 298 97 298.5 97.3C299.1 97.8 299.1 99.2 298.5 100.5C298.3 100.9 298 101.6 297.9 102.2C297.7 102.7 297.5 103.4 297.3 103.8C297.1 104.1 296.9 104.6 296.8 104.8C296.8 105 296.4 106 295.9 107.1C294.2 110.8 294 111.2 294 111.4C294 111.5 293.9 111.8 293.7 112.1C293.5 112.4 293.2 113 293.1 113.4C292.9 114 292.6 114.6 291.6 117C291.3 117.7 291 118.4 290.9 118.8C290.8 119.1 290.6 119.5 290.4 119.8C290.2 120.1 290 120.6 289.9 121C289.6 122 288.7 124.5 288.4 125.3C288.2 125.6 288 126.3 288 126.8C287.9 127.4 287.8 127.8 287.6 128.1C287.4 128.4 287.2 128.8 287.2 129.1C287.1 129.3 286.7 130.8 286.3 132.3C285.9 133.8 285.5 135.4 285.4 135.8C285.3 136.2 285.2 136.8 285.2 137C284.9 138.4 285.9 138.7 287.4 137.7C288.4 137 292.8 133 293.5 132.1C293.7 131.9 294.3 131.2 294.9 130.6C295.5 130 296.2 129.3 296.3 129.1C296.5 128.8 296.8 128.4 297.1 128.1C297.3 127.9 297.7 127.4 297.9 127C298.2 126.3 298.4 126 299.5 124.3C300.3 123.1 300.7 121.8 301.2 119.6C302.5 113.4 302.8 112.1 302.9 110.8C303.1 110.1 303.3 108.7 303.5 107.9C303.6 107 303.8 105.8 303.9 105.1C304.5 100.9 304.6 100.7 305.4 99.7C305.7 99.3 305.9 99.2 306.5 99.1C307.3 99 308.8 98.6 309.8 98.2C310.3 98.1 311.7 97.9 313.5 97.7C318.2 97.3 320.3 97.5 320.8 98.5C321.1 99 320.9 100.8 320.5 102.1C320.2 103 319.9 104.6 319.9 105.1C319.9 105.3 319.7 106 319.6 106.6C319.4 107.3 319.1 108.5 318.9 109.2C318.8 110 318.5 111 318.4 111.4C318.3 111.8 318.2 112.6 318.1 113.1C318 113.6 317.7 114.7 317.5 115.5C317.3 116.3 317 117.6 316.8 118.4C316.2 120.7 316 121.4 315.6 122.7C315.4 123.4 315 124.7 314.8 125.6C314.2 127.8 313.7 129.5 313.5 130C313.3 130.2 313.1 130.9 313 131.5C312.9 132.1 312.6 132.9 312.4 133.3C312.2 133.7 312.1 134.4 312 134.9C311.9 135.3 311.7 135.9 311.6 136.1C311.2 136.7 310.5 138.6 309.6 141.4C309.2 142.6 308.7 143.8 308.6 144.1C308.5 144.3 308.1 145.3 307.7 146.1C307.1 147.6 307 148.4 307.3 148.5C307.6 148.5 309 147 309.9 145.8C310.3 145.1 310.8 144.4 311 144.2C311.2 144 311.5 143.6 311.6 143.4C311.8 143.1 312.1 142.7 312.4 142.4C312.6 142.2 313.2 141.3 313.7 140.6C314.2 139.9 314.8 139.1 315 138.9C315.2 138.7 315.8 138 316.3 137.2C316.8 136.5 317.3 135.9 317.4 135.8C317.4 135.8 317.8 135.3 318.2 134.7C318.6 134.1 319.1 133.3 319.3 133.1C319.7 132.7 320.8 131.1 322.3 128.8C322.5 128.5 323 127.9 323.3 127.4C323.6 126.9 324.4 125.9 325 125C326.2 123.2 326.6 122.7 327.7 121.9C328.6 121.2 329 121.1 330.2 120.9C332.4 120.5 333.4 120.6 334.3 121.4C334.8 121.8 335.4 122.9 335.4 123.4C335.4 124.4 334.4 126.7 333.5 127.9C333.3 128.2 332.7 129.1 332.2 129.9C331.6 130.8 330.9 131.9 330.6 132.4C330.3 132.8 330 133.4 329.9 133.6C329.6 134.1 328.6 135.6 328.3 136C328.2 136.2 327.7 136.9 327.3 137.6C326.8 138.2 326.1 139.3 325.6 139.9C325.2 140.6 324.6 141.4 324.3 141.8C323.8 142.7 323.1 143.7 321.9 145.2C319.6 148.4 318.9 149.4 318.7 149.8C318.5 150 318.3 150.3 318.1 150.4C318 150.6 317.7 150.9 317.5 151.2C317 152 314.6 155.1 313.1 157C312.7 157.4 312.1 158.2 311.7 158.7C310.4 160.4 309.9 160.8 309.3 161C308.4 161.2 305.4 160.9 304.2 160.4C304 160.3 303.1 160.2 302.4 160.1C300.7 160 300 159.8 298.7 159.4C298.1 159.3 297.4 159.1 297 159.1C296.6 159 295.8 158.8 295.1 158.5C294.5 158.3 293.6 158 293.2 157.9C291.3 157.3 290.5 156.9 290.2 156.6L290 156.2L290.2 155.6C290.4 155.2 290.7 154.5 290.8 153.9C291 153.3 291.4 152.4 291.6 151.8C291.9 151.3 292.2 150.6 292.2 150.2C292.5 149.3 293.2 147.1 293.6 146.4C294 145.5 294.1 145 293.8 144.6C293.6 144.1 293.4 144.2 292.9 144.7C292.6 145 291.8 145.6 291.1 146.1C290.3 146.6 289.3 147.3 288.8 147.6C287.9 148.2 286.6 148.8 284.4 149.6C283.5 149.9 283.3 149.9 281.3 149.9C278 149.9 276.9 149.6 274.5 148.1C273.8 147.6 272.6 146.1 271.9 144.8C270.9 142.7 270 142.3 269 143.6C268.8 143.9 268.4 144.3 268 144.5C267.7 144.7 267.2 145.2 266.8 145.5C266.1 146.1 264.7 147 263.4 147.7C263 147.9 262.4 148.2 262.1 148.4C261.8 148.6 261.2 148.8 260.8 148.9C260.3 149 259.5 149.3 258.9 149.5C258 149.8 257.8 149.8 254.9 149.8C252.1 149.9 251.8 149.9 250.9 149.6C250.3 149.5 249.5 149.3 249 149.2C248.6 149.1 248 148.9 247.8 148.7C247.5 148.5 246.9 148.2 246.4 147.9C245.3 147.4 243.9 146.1 243.3 145.1C243 144.7 242.7 144.1 242.6 143.9C242.4 143.7 242.2 143.3 242.1 142.9C242.1 142.5 241.9 142 241.7 141.8C241.2 140.9 240.8 141.1 239.7 142.3C238.7 143.6 236.9 145.6 235.8 146.7C235.3 147.3 234.5 148.2 233.9 148.8C233.3 149.4 232.3 150.4 231.6 151C231 151.7 230 152.6 229.5 153.1C229.1 153.5 228.2 154.4 227.6 154.9C226.9 155.4 226.1 156.2 225.6 156.6C225.2 157 224.4 157.6 223.9 158C223.5 158.4 222.8 158.9 222.5 159.2C222.2 159.5 221.7 159.9 221.3 160C221 160.2 220.6 160.6 220.5 160.8C220.3 161 219.9 161.4 219.4 161.6C218.3 162.4 217.6 163.1 217.1 164.1C216.8 164.6 216.5 165.2 216.3 165.6C215.9 166.3 215.2 167.8 214.8 168.8C214.7 169.3 214.2 170.2 213.9 170.8C213.5 171.5 213.1 172.4 212.9 172.9C212.8 173.3 212.5 174 212.3 174.3C212.1 174.6 211.9 175 211.9 175.1C211.9 175.2 211.7 175.5 211.4 176C211.1 176.4 210.9 176.7 210.9 176.8C210.9 177 209.8 179.2 209.2 180C209 180.4 208.8 180.9 208.8 180.9C208.8 181 208.5 181.4 208.2 181.9C207.9 182.3 207.5 183.1 207.2 183.6C206.3 185 204.2 187.7 203.4 188.3C203.1 188.5 202.7 188.9 202.3 189.2C201.5 190 199.9 190.9 198.4 191.4C196.9 192 195.3 192.1 193.7 191.8ZM198.3 181.7C198.6 181.4 199.8 179.2 199.9 178.6C200 178.5 200.3 177.7 200.6 177C201.3 175.5 201.3 175.2 200.8 175.1C200.3 174.9 198.8 176.4 198.1 177.6C197.8 178.1 197.4 178.9 197.2 179.2C196.8 180 196.8 180.7 197.1 181.5C197.4 182.1 197.8 182.2 198.3 181.7ZM11.4 159.8C11.3 159.8 11.1 159.6 10.9 159.5C10.7 159.3 10.7 159.2 11.1 157.5C11.2 156.5 11.5 155.4 11.6 155.1C11.8 154.7 11.9 154 12 153.4C12.1 152.9 12.3 151.7 12.6 150.9C12.8 150 13.1 148.9 13.2 148.3C13.3 147.7 13.5 146.9 13.6 146.5C13.8 146.1 14 145.2 14.1 144.5C14.2 143.8 14.3 142.9 14.4 142.6C14.5 142.2 14.8 141.2 15 140.4C15.2 139.5 15.5 138.6 15.6 138.3C15.7 138.1 15.8 137.5 15.9 137.1C16 136.3 16.4 134.9 16.8 133.7C17 133.2 17 133 16.9 132.6C16.7 132 16.4 131.9 15.3 132.1C13.6 132.5 13.2 132.1 12.6 129.8C12.4 128.8 12.4 128.7 12.6 127.9C12.7 127.5 12.8 126.9 12.8 126.7C12.8 125.7 13.4 125 14.9 124.2C17.6 122.9 19.1 122.1 19.2 121.9C19.4 121.6 20 119.9 20.1 119.1C20.1 118.7 20.3 118.1 20.4 117.8C20.5 117.4 20.8 116.4 20.9 115.6C21.4 113.6 22 111 22.3 109.8C22.5 109.2 22.7 108.3 22.7 107.9C23.1 106 23.4 104.6 23.6 104.1C23.8 103.9 23.9 103.3 23.9 102.9C24 102.4 24.2 101.6 24.3 101.1C24.8 99.3 25 98.6 25.1 97.6C25.2 97 25.4 96.4 25.5 96.1C25.6 95.9 25.8 94.9 26 93.9C26.2 92.9 26.5 91.5 26.7 90.8C26.9 90 27.1 89.2 27.2 88.8C27.2 88.5 27.4 87.8 27.5 87.4C27.6 86.9 27.9 86 28 85.2C28.1 84.4 28.4 83.5 28.5 83C28.7 82.6 28.9 81.7 29 81C29.2 79.8 30.2 75.4 30.6 74.3C30.6 74 30.8 73.4 30.8 73.1C30.9 72.8 31.1 71.5 31.4 70.3C31.7 69.1 32.1 67.4 32.3 66.6C32.5 65.7 32.7 64.7 32.8 64.2C32.9 63.8 33.1 63.1 33.2 62.6C33.3 62.2 33.5 61.2 33.7 60.5C33.9 59.8 34.1 58.5 34.3 57.7C34.5 56.9 34.7 55.8 34.8 55.4C35.3 53.2 35.9 50.8 36.1 49.5C36.3 48.7 36.4 48 36.5 47.9C36.6 47.7 36.8 46.8 36.9 45.8C37.1 44.8 37.4 43.5 37.6 43C37.7 42.5 37.9 41.6 38 41.1C38.1 40.6 38.3 39.5 38.5 38.7C38.7 37.9 38.9 36.7 39.1 36.1C39.4 34.5 40.1 33.2 40.9 33.1C41 33 41.5 32.8 41.9 32.6C42.5 32.3 43.3 32.1 44.4 31.9C44.7 31.9 45.4 31.7 46 31.6C46.9 31.4 47.3 31.4 49.4 31.4C50.8 31.5 52 31.6 52.6 31.7C53 31.8 54 31.9 54.6 32C55.7 32.1 55.7 32.1 56.8 32.8C58.7 34.1 59 34.6 58.5 36.2C58.4 36.8 58.1 37.7 58 38.4C57.9 39 57.7 39.8 57.5 40.2C57.4 40.5 57.2 41.4 57 42.2C56.9 42.9 56.6 44.1 56.4 44.8C56.2 45.4 56 46.3 56 46.8C55.9 47.3 55.7 47.9 55.6 48.2C55.5 48.5 55.2 49.3 55 50.1C54.8 51.3 54.4 52.9 53.4 56.2C53.2 57.2 52.8 58.4 52.1 61.3C51.9 62.1 51.6 63.2 51.4 63.8C51.3 64.3 51.1 65.1 51 65.6C50.9 66.1 50.7 67 50.5 67.6C50.3 68.1 50 69.2 49.8 70C49.7 70.8 49.4 71.6 49.3 71.9C49.2 72.1 49.1 72.6 49.1 73C49 73.4 48.8 74.1 48.7 74.5C48.5 75 48.2 76.2 47.9 77.2C47.7 78.2 47.4 79.4 47.3 79.8C47.1 80.1 47 80.7 46.9 81C46.9 81.3 46.7 82 46.5 82.5C46.4 83.1 46.1 84 45.9 84.6C44.9 88.5 44.6 89.8 44.4 90.4C44.2 90.8 44 91.6 43.9 92.1C43.8 92.5 43.6 93.3 43.5 93.8C43.3 94.3 43 95.4 42.9 96.1C42.8 96.9 42.6 97.7 42.4 98C42.3 98.3 42.1 99.1 42 99.8C41.8 100.6 41.6 101.6 41.4 102.1C40.7 104 40.6 104.6 41.1 104.9C41.3 105 41.6 104.8 42.8 103.7C43.5 103 44.4 102.2 44.8 101.9C45.1 101.6 46.7 100 48.3 98.4C49.8 96.9 52.2 94.5 53.4 93.2C54.7 92 55.9 90.6 56.1 90.3C56.3 89.9 56.6 89.6 56.6 89.6C56.7 89.6 59.3 87.1 59.8 86.6C60 86.3 61 85.2 62 84.1C63 83.1 64.1 81.9 64.4 81.6C64.9 81 65.7 80.1 68.2 77.4C69.9 75.6 70.9 74.5 71.4 73.9C72 73.1 74.4 70.5 75.6 69.2C76.2 68.6 76.9 67.9 77.1 67.6C77.2 67.4 77.9 66.7 78.5 66.1C79.1 65.4 79.8 64.7 80 64.4C80.2 64.1 81.2 62.9 82.3 61.8C83.3 60.6 84.6 59.2 85.2 58.6C87.3 56.3 88.1 55.4 88.7 54.7C90.2 53 100.4 42.7 104.2 39.1C105.3 38 106.5 36.9 106.9 36.5C107.3 36.1 108 35.4 108.6 34.9C109.2 34.5 110 33.7 110.5 33.2C111.4 32.4 112 32 114 30.4C114.5 30 115.3 29.4 115.7 29.1C116.1 28.7 117.1 28 117.9 27.4C118.7 26.9 119.6 26.2 119.8 26C120.1 25.7 120.6 25.4 121 25.2C121.3 25.1 121.7 24.9 121.9 24.7C122 24.5 123.3 23.9 124.6 23.2C128.1 21.4 128.8 21.1 129.2 21.1C129.3 21.1 130 20.9 130.5 20.7C131.1 20.5 131.9 20.2 132.4 20.1C132.8 20.1 133.7 19.9 134.2 19.7C134.8 19.5 135.6 19.4 135.9 19.4C136.2 19.4 137 19.3 137.8 19.2C139.2 19 140.7 19.1 141.6 19.4C142.6 19.8 143.5 20.3 143.7 20.5C143.9 20.9 144 22.9 143.7 23.4C143.6 23.8 140.8 25.8 138.6 27.2C137.7 27.8 135.2 29.5 134.3 30.2C133.9 30.5 133.2 31 132.7 31.3C132.2 31.7 131.6 32.1 131.3 32.4C130.3 33.2 129.2 34.1 128.6 34.5C128.3 34.7 127.9 35.1 127.7 35.3C127.5 35.6 127 36 126.6 36.2C125.5 37.1 124.6 37.8 123.8 38.6C123.3 39 122.4 39.8 121.8 40.3C118.9 42.8 118.4 43.2 117.6 44C116.7 44.9 115.9 45.6 113.8 47.5C113.1 48.1 112.3 48.9 111.9 49.3C111.6 49.6 111 50.2 110.6 50.5C110.2 50.9 109 52 107.9 53.1C106.8 54.2 105.6 55.4 105.1 55.8C104.7 56.2 104 56.9 103.6 57.4C103.3 57.8 102.7 58.4 102.4 58.6C101.9 59 99.8 61.1 97.8 63.3C96 65.2 92.8 68.5 91.4 70C88.1 73.4 85.4 76.1 83.8 77.8C82.9 78.8 82 79.7 81.7 79.9C81.5 80.1 81 80.6 80.7 81C80 81.8 76.9 85 71.9 90.1C69.7 92.3 67.8 94.3 67.6 94.5C67.4 94.7 66.3 95.8 65.1 96.9C60.8 101.1 57.9 104 57.7 104.3C57.6 104.7 58 106.7 58.4 107.8C58.5 108.2 58.8 108.9 58.9 109.4C59.4 110.9 60.2 113.2 60.5 113.7C60.7 114.1 61.1 114.9 61.9 117C62.2 117.5 62.5 118.2 62.6 118.4C62.7 118.6 62.9 119 63 119.3C63.1 119.5 63.3 119.9 63.5 120.1C63.6 120.3 63.8 120.8 63.9 121.1C64 121.5 64.4 122.1 64.7 122.6C65.4 123.9 67.1 127 67.1 127.1C67.1 127.2 67.4 127.5 67.7 127.9C68 128.3 68.2 128.7 68.2 128.8C68.2 128.9 71.6 133.9 72.2 134.6C72.7 135.2 73.2 135.8 74.4 137.4C74.8 137.9 75.6 138.9 76.3 139.6C77 140.3 78.1 141.4 78.8 142.1C80.5 144.1 80.5 144.1 82.6 145.7C85.1 147.6 88.1 149.7 88.8 149.9C89.1 150.1 89.6 150.3 89.9 150.4C90.7 150.9 93.1 151.7 94.3 152C94.8 152.1 95.3 152.3 95.4 152.4C95.6 152.6 95.2 152.9 94 153.5C93.4 153.8 92.4 154.3 91.8 154.6C91.2 154.9 90.7 155.1 90.6 155.1C90.5 155.1 90.1 155.3 89.7 155.5C89 156 87 156.9 86.8 156.9C86.7 156.9 86.3 157 85.8 157.3C84.8 157.8 82.1 158.7 80.2 159.2C77.1 160.1 73.2 160.1 70.3 159.3C68.6 158.9 67 158.2 65.5 157.3C63.4 156.1 59.9 152.6 58.3 150.3C57.9 149.6 57.2 148.7 56.9 148.2C56.1 147.1 54.1 143.2 54.1 142.8C54.1 142.7 53.9 142.2 53.7 141.7C53.5 141.2 53.2 140.6 53.1 140.3C53 140 52.8 139.5 52.6 139.2C52.4 138.8 52.2 138.1 52 137.6C51.9 137.1 51.7 136.5 51.5 136.2C51.4 135.9 51.2 135.2 51.1 134.7C51 134.2 50.7 133.2 50.5 132.6C50.3 132 50 130.8 49.9 130.1C49.8 129.3 49.5 128.4 49.4 128.1C49.3 127.8 49.1 127.1 49.1 126.6C49 126.1 48.8 125 48.6 124.2C48.3 123.3 48.1 122.2 48 121.5C47.9 120.7 47.8 120.1 47.6 119.8C47.5 119.4 47.3 118.6 47.1 117.3C46.9 115.2 46.7 114.7 46.3 114.6C45.9 114.6 45.2 115 44.8 115.4C44.6 115.6 44.2 115.9 44 116C43.8 116.2 42.9 116.8 42.1 117.4C40 118.9 39.1 119.5 38.5 119.9C37.2 120.5 35.9 121.9 35.9 122.8C35.9 122.9 35.7 123.6 35.4 124.3C35.1 125.1 35 125.9 34.9 126.6C34.8 127.4 34.7 127.9 34.5 128.1C34.4 128.4 34.2 129.2 34 129.9C33.8 130.6 33.6 131.7 33.4 132.2C33.2 132.8 32.9 133.8 32.9 134.4C32.8 135.2 32.7 135.6 32.5 136C32.3 136.3 32.1 136.9 32 137.5C31.9 138 31.7 139.1 31.4 139.9C31.2 140.7 30.9 141.8 30.8 142.4C30.7 143 30.5 143.8 30.4 144C30.2 144.3 30.1 145 29.9 145.7C29.8 146.4 29.6 147.3 29.4 147.8C29.3 148.3 29 149.3 28.9 150C28.7 150.8 28.5 151.6 28.3 151.9C28.2 152.2 28.1 152.8 28 153.4C27.9 154 27.8 154.5 27.6 154.8C27.1 155.7 25.3 156.6 22.2 157.7C19.4 158.7 19.1 158.8 17.7 159C16.9 159.1 15.9 159.3 15.4 159.5C14.5 159.7 12 159.9 11.4 159.8ZM204.8 138.3C205.6 137.9 206.3 137.5 206.4 137.4C206.6 137.2 207.1 136.8 207.6 136.4C208.6 135.7 211.4 132.8 212 132C212.2 131.8 212.5 131.3 212.7 131.1C212.9 130.8 213.2 130.3 213.4 130C213.5 129.8 213.9 129.3 214.1 128.9C214.4 128.6 214.8 128 215 127.6C215.1 127.2 215.4 126.7 215.5 126.5C216.2 125.3 217.5 122.4 217.9 121.1C218.1 120.6 218.3 120.1 218.4 119.9C218.5 119.7 218.7 119 218.9 118.3C219 117.6 219.3 116.6 219.5 115.9C219.7 115.3 220 114.1 220.1 113.1C220.3 112.2 220.5 111 220.6 110.4C220.7 109.9 220.8 108.8 220.8 108.1C220.8 106.8 220.7 106.6 220.4 105.6C219.9 104.3 219.8 104.1 219 103.7C217.9 103.3 216.8 103.3 216.1 103.7C215.8 103.8 215.4 104 215.1 104.1C214.8 104.1 214.4 104.3 214.2 104.6C213.9 104.8 213.5 105.1 213.3 105.2C211.9 106.2 208.5 110.1 208 111.2C207.9 111.5 207.7 111.9 207.4 112.1C207 112.6 206 114.2 206 114.4C206 114.5 205.8 114.9 205.5 115.4C204.9 116.5 203.1 120.2 202.9 120.9C202.8 121.2 202.6 121.8 202.4 122.3C201.8 123.7 201.2 125.5 201 126.5C200.9 127 200.7 127.7 200.6 128.1C200.3 128.8 199.8 131.2 199.5 134C199.3 135.2 199.3 135.1 199.9 137.5C200.1 138.2 200.5 138.6 201.3 138.9C202.4 139.3 203.2 139.2 204.8 138.3ZM149 138.1C151 137.3 153.6 134.9 155.1 132.3C155.3 131.9 155.7 131.4 155.8 131.2C156 131 156.2 130.6 156.3 130.3C156.4 130.1 156.8 129.4 157.2 128.9C157.7 128.3 158 127.8 158 127.7C158 127.6 158.6 126.4 159.2 124.9C160.4 122.4 160.8 121.6 161.2 120.4C161.3 120.1 161.6 119.1 161.9 118.2C162.3 117.3 162.7 116 162.9 115.3C163.2 114.6 163.5 113.8 163.6 113.5C163.7 113.2 163.9 112.6 164 112.1C164.2 111.6 164.4 110.9 164.6 110.6C165.2 109.4 165.6 106.4 165.4 105.2C165.2 104.2 164.8 103.8 163.9 103.6C162.9 103.3 162.8 103.3 161.3 103.8C159.9 104.3 159.6 104.5 157.6 106.3C154.7 108.9 151 114.5 149.5 118.6C148.6 121 148.2 122 148 123.1C147.9 123.7 147.6 124.7 147.4 125.3C147.2 125.9 147 126.7 146.9 127C146.9 127.3 146.8 127.7 146.7 128C146.5 128.2 146.4 128.9 146.2 129.6C146.1 130.2 145.8 131.4 145.7 132.2C145.2 134.1 145.2 136.9 145.5 137.7C146 138.7 146.9 138.8 149 138.1ZM314.6 91.2C312.1 90.7 311.1 90.2 309.9 88.7C308.8 87.2 308.4 85.3 308.8 83.4C309 82.3 309.8 80.4 310.2 79.9C310.4 79.6 310.6 79.3 310.7 79.1C310.9 78.5 312.3 76.7 312.6 76.5C312.8 76.5 313.2 76.2 313.6 75.8C314.6 75 316.5 74.1 318 73.6C319.3 73.3 319.5 73.2 320.5 73.3C322.7 73.4 324.7 74.4 326.1 76C326.6 76.6 327.1 78.3 327.1 79.2C327.1 81.4 326.9 82.2 326 84.1C325.5 85.2 324.9 86.1 324.5 86.5C324.2 86.9 323.8 87.4 323.6 87.7C323.4 87.9 322.5 88.6 321.5 89.3C320.1 90.3 319.6 90.5 318.6 90.8C317.5 91.1 315.4 91.3 314.6 91.2ZM113.3 82.9C112 82.7 110.6 81.7 109.8 80.4C109.5 79.7 109.2 77.5 109.3 75.9C109.4 74.6 110.3 72.4 111 72C111.2 71.8 111.6 71.5 111.9 71.4C112.1 71.2 112.5 71 112.7 70.9C112.9 70.9 113.5 70.7 113.9 70.5C114.8 70.1 114.8 70.1 116.2 70.2C117 70.2 117.8 70.3 118 70.4C118.8 70.7 118.9 71.8 118.2 72C118 72 117.4 72 116.8 71.9C114.6 71.5 112.7 71.9 112.2 72.9C111.8 73.6 111.7 75.8 111.8 78C111.9 79.8 112 79.9 112.3 80.4C113 81.4 113.6 81.7 115 81.7C116.4 81.8 116.7 81.7 116.9 81.1C117.2 80.5 117.2 79.4 117 78.8C116.8 78.3 116.5 78.2 115.4 77.9C114.8 77.8 114.6 77.5 114.9 77.2C115.1 77 115.4 77 116.7 77C118.5 77 119 77.1 119.2 77.5C119.3 77.7 119.4 78.6 119.4 79.6L119.4 81.5L119.1 81.9C118.5 82.5 117.9 82.7 116.2 82.9C114.4 83.2 114.6 83.2 113.3 82.9ZM125.1 82.9C124.1 82.7 124.2 83 124.2 76.7L124.2 71L124.5 70.7C124.9 70.3 125.6 70.3 126.2 70.5C126.8 70.8 126.9 71 126.9 76.9C126.9 81.9 126.9 82.4 126.7 82.6C126.4 82.9 125.8 83 125.1 82.9ZM181.8 82.9C180.5 82.8 179.7 82.1 180 81.3C180.2 80.8 180.5 80.7 181.4 81C184.1 81.9 185.6 81.4 185.6 79.6C185.6 78.6 185.3 78.3 183.5 77.4C181.7 76.6 181.1 76.1 180.5 75.1C179.8 73.9 180.3 72.1 181.4 71.3C182.5 70.5 183.5 70.2 185 70.2C186.6 70.2 186.9 70.4 186.9 71.2C186.9 71.9 186.6 72 185.2 71.8C182.7 71.5 181.7 72.3 182.5 73.8C182.8 74.5 183.4 74.9 184.7 75.5C186.1 76 187.2 76.9 187.6 77.8C188.1 78.8 187.9 80 187.2 81.1C186.8 81.7 186.6 81.8 185.5 82.4C184.1 83.1 183.9 83.1 181.8 82.9ZM214.9 82.7C213 82 212.5 81.4 211.7 78.6C211.4 77.5 211.4 77.5 211.5 76.5C211.6 76 211.8 75.2 211.8 74.8C212 73.4 213.4 71.4 214.8 70.9C215.1 70.8 215.6 70.6 215.9 70.5C216.7 70.2 220 70.2 220.4 70.5C220.7 70.9 220.7 71.4 220.3 71.7C220 71.9 219.7 71.9 218.2 71.8C214.5 71.7 214 72.2 214 76.5C214 79 214.1 79.4 214.6 80.2C215.2 81.1 216.2 81.7 217.4 81.7C217.9 81.8 218.6 81.7 219 81.6C219.7 81.5 220.2 81.6 220.2 82C220.2 82.6 219.4 82.9 217.2 82.9C215.8 83 215.6 83 214.9 82.7ZM233.6 82.9C232.2 82.7 231.3 81.8 230 79.3C228.9 77.4 228.7 77.2 228.3 77.5C227.7 77.8 227.6 78.4 227.7 80.4C227.7 82 227.7 82.2 227.5 82.4C227.2 82.8 226.5 83 226 82.8C225.3 82.7 225.3 82.7 225.3 78.5C225.3 76.4 225.2 74.6 225.2 74.5C225.2 74.5 225.2 73.6 225.2 72.7C225.3 71 225.4 70.9 225.7 70.7C226 70.3 226.7 70.3 227.2 70.5C227.6 70.7 227.8 71.2 227.6 72.1C227.5 73.1 227.6 74.9 227.9 75.1C228.3 75.4 228.9 75 229.4 74.2C229.6 73.8 230.4 72.9 231.1 72.2C232.3 70.9 232.5 70.8 233.3 70.5C234.9 70 235.1 70.5 233.7 71.6C233.2 71.9 232.6 72.5 232.4 72.7C232.2 73 231.8 73.4 231.5 73.7C230.2 74.9 230.2 75.4 232 78.4C233.2 80.4 233.9 81.4 234.7 81.8C235.4 82.1 235.6 82.4 235.4 82.7C235.2 82.9 234.2 83 233.6 82.9ZM260.2 82.7C259 82.3 258 81.2 257.1 79.3C256.2 77.4 255.4 76.9 254.9 77.9C254.8 78.2 254.7 78.7 254.8 80.3C254.8 82.8 254.8 82.8 253.6 82.7C252.3 82.6 252.4 83 252.4 76.8C252.5 73.8 252.5 71.3 252.6 71.2C252.8 70.5 253.4 70.2 254.1 70.4C254.7 70.6 254.8 70.8 254.8 72.9C254.8 74.6 254.8 74.8 255 75C255.3 75.3 255.3 75.3 255.7 75C255.9 74.9 256.3 74.5 256.5 74.2C257.1 73.4 258.2 72.1 259.1 71.4C259.8 70.7 260.6 70.4 261 70.6C261.5 70.9 261.3 71.2 259.5 72.7C258.4 73.6 257.6 74.7 257.6 75.3C257.6 75.6 257.8 76 258 76.3C258.2 76.6 258.5 77.1 258.7 77.5C258.9 77.8 259.5 78.8 260.1 79.7C260.9 81.1 261.2 81.4 261.6 81.6C262.6 82.1 262.8 82.4 262.4 82.8C262.2 83.1 261 83 260.2 82.7ZM268.7 82.9C267 82.8 266.7 82.7 266.6 82.4C266.5 82.2 266.5 79.6 266.5 76.6L266.5 71L266.8 70.7C267.4 70 268.7 70.4 268.8 71.3C268.8 71.4 268.8 73.6 268.8 76.2L268.7 80.8L269 81.2L269.4 81.6L271 81.6C272.4 81.7 272.7 81.7 272.8 81.9C273.4 82.8 272.3 83 268.7 82.9ZM280.2 82.9C280.1 82.8 279.5 82.5 279.1 82.2C278.2 81.7 278.2 81.6 277.8 80.7L277.4 79.8L277.3 75.4L277.3 71L277.6 70.7C277.8 70.4 278 70.4 278.4 70.4C279.7 70.4 279.7 70.2 279.8 75.8C279.8 81.1 279.8 80.9 280.9 81.5C281.6 81.9 282.5 81.9 283.6 81.5C285.2 80.8 285.2 80.8 285.2 75.4C285.3 70.4 285.3 70.4 286.5 70.4C287 70.4 287.5 70.7 287.5 71C287.5 71.1 287.5 73.1 287.5 75.4L287.5 79.5L287.1 80.4C286.8 80.8 286.5 81.3 286.3 81.5C285.6 82.1 284.5 82.7 284.1 82.8C283.6 83 280.6 83 280.2 82.9ZM293.2 82.8C292.8 82.5 292.8 82.5 292.7 81.4C292.7 80.7 292.6 80 292.6 79.7C292.6 79.4 292.6 77.4 292.6 75.1C292.6 70.5 292.6 70.6 293.6 70.3C294.1 70.1 294.5 70.1 295.8 70.2C298.4 70.5 298.6 70.5 299.4 71.4C300.2 72.2 300.3 72.4 300.2 73.6C300.1 74.5 300.1 74.6 299.5 75.1C298.8 76 298.8 76.3 299.7 77.1C301.3 78.5 301.3 80.3 299.8 81.9C298.9 82.8 298.5 82.9 295.7 82.9C293.8 83 293.5 83 293.2 82.8ZM144.3 82.6C144.1 82.3 144 82 143.9 80.7C143.9 79.8 143.8 78.6 143.7 77.9C143.6 77.3 143.5 76.4 143.4 76C143.3 75 143 74.4 142.6 74.6C142.4 74.6 141.3 76.8 141.2 77.4C141.1 77.6 140.9 78 140.7 78.4C140.5 78.7 140.2 79.3 140.1 79.7C139.8 80.6 138.9 82.3 138.6 82.5C138.5 82.6 138.3 82.6 138.2 82.6C138 82.5 137.3 81.5 137.1 80.8C136.9 80.5 136.7 80.2 136.6 80C136.5 79.8 136.3 79.3 136.1 78.9C136 78.5 135.7 77.9 135.5 77.5C135.3 77.1 134.9 76.4 134.7 75.9C134.5 75.4 134.1 74.8 133.9 74.6L133.6 74.3L133.4 74.6C133.2 74.9 133.1 75.1 133.1 76.4C133.1 77.2 133.1 78.2 133 78.6C132.9 79.1 132.8 80 132.8 80.7C132.7 82 132.5 82.5 132 82.5C131.3 82.5 131.1 81.3 131.5 79.9C131.7 79.3 131.8 78.4 131.9 76.1C132.1 72.8 132.3 71.1 132.5 70.7C132.8 70.2 134 70.1 134.5 70.5C134.9 70.8 135.6 71.9 135.9 72.8C136 73.1 136.3 73.5 136.4 73.8C136.6 74.1 136.8 74.5 136.9 74.8C137.2 76 138.4 78.1 138.7 78.3C139.2 78.5 139.6 78.1 139.8 77.3C139.9 76.9 140.2 76.2 140.4 75.8C140.7 75.4 140.9 74.8 141.1 74.4C141.2 74 141.4 73.6 141.6 73.4C141.7 73.2 142 72.7 142.1 72.3C142.3 71.9 142.5 71.4 142.7 71.1C143.3 70.3 144.4 70 144.8 70.5C145.1 70.9 145.6 73.6 145.9 77.4C146 78.4 146.1 79.8 146.2 80.4C146.4 82.3 146.2 82.9 145 82.9C144.6 82.9 144.5 82.8 144.3 82.6ZM159.8 81.7C159.2 81 157.8 79.6 156.8 78.5C155.7 77.4 154.6 76.3 154.3 75.9C153.5 74.8 152.6 74.6 152.4 75.4C152.3 76.4 152.3 80.4 152.4 81.1C152.5 81.7 152.5 81.8 152.3 82.2C152 82.7 151.5 82.9 151.2 82.6C151.1 82.5 151.1 80.9 151.1 76.6C151.1 71.3 151.2 70.8 151.4 70.6C151.8 70.2 152.2 70.4 153.5 71.7C160 78.4 159.9 78.2 160.3 78C160.7 77.9 160.8 77.2 160.7 74.2C160.6 71.4 160.6 71.3 160.9 70.9C161.2 70.4 161.5 70.4 161.8 70.8C162.1 71.2 162.1 82.4 161.8 82.7C161.4 83.1 161 82.9 159.8 81.7ZM175.2 82.7C174.5 82.5 174 81.9 174 81.2C174 80.7 173.6 79.6 173.2 79.2C172.8 78.7 172.4 78.6 171.5 78.7C171.2 78.8 170.6 78.8 170.2 78.7C168.9 78.6 168.5 78.9 168 80.4C167.5 82 167.3 82.4 167 82.6C166.1 83 165.9 81.8 166.6 80.3C166.8 79.9 167 79.5 167 79.4C167 79.3 167.2 78.8 167.4 78.4C167.6 78 167.8 77.3 167.9 76.9C168 76.5 168.3 75.9 168.5 75.5C168.7 75.1 168.9 74.7 168.9 74.5C168.9 74 169.1 73.3 169.4 73C169.6 72.8 169.9 72.3 170 71.9C170.3 70.8 170.5 70.6 171.2 70.3C172.3 69.9 172.9 70.2 173.1 71.3C173.1 71.6 173.3 72 173.4 72.3C173.5 72.5 173.7 73 173.8 73.5C173.9 73.9 174.2 74.7 174.5 75.3C174.8 75.8 175 76.4 175 76.4C175 76.5 175.2 77.1 175.4 77.7C175.6 78.4 175.7 79 175.7 79.2C175.7 79.3 175.9 79.8 176.1 80.2C176.5 80.9 176.8 81.9 176.8 82.4C176.8 82.8 176.1 83 175.2 82.7ZM195.1 82.7C195 82.6 194.8 82.4 194.7 82.3C194.7 82.2 194.6 79.9 194.6 77.2C194.6 71.9 194.6 72 193.8 71.7C193.6 71.6 193 71.5 192.5 71.5C191.6 71.5 191.4 71.4 191.4 70.9C191.4 70.3 191.4 70.3 195.8 70.3C200 70.3 200.2 70.3 200.2 70.9C200.2 71.2 200 71.3 198.9 71.5C197.8 71.6 197.3 71.9 197 72.4C196.9 72.6 196.9 74 196.9 77.6C196.9 82.3 196.9 82.5 196.7 82.7C196.4 82.9 195.5 82.9 195.1 82.7ZM205 82.7C204.6 82.5 204.6 83.1 204.6 76.8C204.6 71.2 204.7 70.9 205 70.6C205.4 70.2 206 70.2 206.4 70.6L206.8 71L206.8 76.7L206.8 82.5L206.5 82.7C206.1 82.9 205.4 82.9 205 82.7ZM239.5 82.7C239.3 82.5 239.3 82.5 239.3 76.7L239.3 71L239.6 70.7C240.2 70.3 241.4 70.6 241.4 71.3C241.4 71.5 241.4 74 241.4 77C241.4 81.6 241.4 82.4 241.2 82.6C240.9 82.9 239.9 82.9 239.5 82.7ZM297.6 81.4C299.1 80.3 298.6 77.6 296.8 77.1C295.9 76.8 295.6 76.8 295.2 77.3C294.9 77.6 294.9 77.7 294.9 79.3L294.9 81L295.3 81.4C295.6 81.8 295.7 81.8 296.4 81.7C297 81.7 297.4 81.6 297.6 81.4ZM171.9 77.4C172.5 77.1 172.5 76.6 172 74.8C171.6 73.5 171.4 73.2 170.9 73.2C170.4 73.2 170.3 73.4 170.1 74.3C170 74.6 169.8 75.2 169.6 75.6C169.2 76.3 169.2 76.6 169.4 77.1C169.6 77.4 169.7 77.5 170.3 77.5C170.6 77.6 171.1 77.6 171.2 77.6C171.4 77.6 171.7 77.5 171.9 77.4ZM296.9 75.3C297.8 75 298 74.6 298 73.5C297.9 72.5 297.8 72.3 296.8 71.8C295.4 71 294.9 71.4 294.9 73.4C294.8 74.8 294.8 74.8 295.2 75.2C295.5 75.6 296.1 75.6 296.9 75.3ZM217.3 68.5C216.8 68.4 215.9 67.4 215.5 66.6C215 65.6 215.4 65.3 216.3 66C217.6 66.9 217.8 66.9 218.8 66.2C219.6 65.6 219.9 65.7 219.9 66.3C219.9 67 218.3 68.7 217.8 68.6C217.7 68.6 217.5 68.6 217.3 68.5Z"/></svg>