<svg xmlns="http://www.w3.org/2000/svg" viewBox="0 0 131.1 213.9" data-pose="cart3" data-floor="211.9" data-foot="110.8,211.9"><path fill="currentColor" d="M2 171.8l.1 .9 .4 .7 2.2 .7 4.5-.5 4.3-1.4 5.1-3.6 6-3.6 19.4-10.6 9.7-4.8 34.7-20.3 2.3-.6 4.6 1.3 1.6 1.1 .6 2.2 3.8 28.1 .3 11.6 4.3 22.7 .9 7.2 .3 7 .8 1.3 1.8 .7 3.5-.3 1.5-1.1 .5-1.8-1-11.5-.3-23.1 .3-11.2-.3-46.2-2.4-10-6.4-19.2-.8-11.2 .3-11.2 .4-1.9 2.4-3 1.8-5.6 6.9-18.4 8.7-20.6 3.3-5.7 1-4.4-.4-2.3-.7-.9-1.4-.2-1.8 .9-1.6 1.3-1.6 2.3-2.2 5.8-8.4 14.6-12.1 23.3-1.3 2-1.2 .9-1.6-.2-1.1-1.2-1.6-6.7 .3-1.6 2.3-4.3 1-4 .1-5.9-1.2-4.8-2.2-3.5-1.6-1.3-3-1.6-2.6-3-2.2-.5-1.3 .3-1.1 .8-1.7 3.7-2.4 2.3-1.3 2-.9 2.7-.2 2.7 .5 4.5 1.6 4.7 1.9 3.3 3.4 3.5 .7 1.4 .4 6.2-.5 1.1-1 .6-1.1-.4-1.1-1.2-9.5-16.8-10.2-19.9-1.4-4.6-1.2-2.2-1.7-2.2-2.2-1.6-1.5-.2-.9 .7-.5 1.1-.2 2.4 1 4.1 2.9 5.1 5.6 15.4 9.9 23.6 2.2 6.2 .8 1.1 2.6 2.1 .9 1.4 3.5 11 2.5 11.9-1.1 20.6-.5 1.2-1.3 1.2-29.6 22.9-10.3 5.9-18.8 15.1-5.5 3.8-8.6 5.3-2.8 2.6z"/></svg>
